<svg id="Capa_1" data-name="Capa 1" xmlns="http://www.w3.org/2000/svg" viewBox="0 0 546.02 197.22"><defs><style>.cls-1{fill:#040169;}.cls-2{fill:#ffce31;}.cls-3{fill:#fdd032;}</style></defs><path class="cls-1" d="M561.19,166.73l-37.79-33a1.29,1.29,0,0,1,.23-2.09l29.16-16.2a1.29,1.29,0,0,0,.5-1.75C549.16,106.35,545.14,99.12,541,92c-3.27-5.59-6.84-11-10.16-16.6-4-6.71-9.19-7.66-15.5-2.26S503.21,84,496.87,89.81a1.29,1.29,0,0,1-1.94-.24c-5.6-8.54-11.12-16.95-16.74-25.5a1.27,1.27,0,0,0-1.48-.51c-11.37,4-23,7.55-34.1,12.19C434.87,79,431.78,84.08,434.15,91c1.26,3.64.74,7.89.81,12.34a1.27,1.27,0,0,1-1.26,1.31H419.2a1.28,1.28,0,0,1-1.26-1.19C417.09,90.83,412.26,80,402.1,72,391.25,63.41,378.57,58.81,365,57.34a336.77,336.77,0,0,0-34.37-1.56c-4,0-9.24.63-11.81,3.12-2.23,2.17-2.36,6.49-3.06,10.16a1.27,1.27,0,0,1-1.58,1l-13.43-3.68a1.28,1.28,0,0,1-.32-2.33c3.6-2.17,6.8-4.11,10-6q3.9-2.31,7.89-4.48c3.34-1.83,3.86-3.8,1.62-7.26-4.77-7.35-9-15-13.49-22.59a1.29,1.29,0,0,0-1.1-.62H301a1.29,1.29,0,0,0-.94.41Q284.92,40,269.77,56.43c-2.76,3-5.36,6.18-8.26,9.58a1.26,1.26,0,0,0,0,1.65L266,72.92a1.31,1.31,0,0,1-.14,1.83c-3.43,3-6.51,3-10.22-.69-5.44-5.46-11.36-10.43-17-15.67-4.67-4.31-9.37-7.8-14.83-1.87a1.28,1.28,0,0,1-2.07-.21l-1.15-2a1.26,1.26,0,0,0-1.49-.59c-14.17,4.5-28.17,9-42.18,13.38-10.8,3.42-10.8,3.41-10.8,14.32V96.27a1.29,1.29,0,0,0,1.51,1.27l5.24-1a1.27,1.27,0,0,1,1.24.48l0,0a1.27,1.27,0,0,1-.15,1.69,7.14,7.14,0,0,1-2.84,2.06c-7.53,1.86-15.13,3.46-23.34,5.27a1.27,1.27,0,0,1-1.54-1.09,24.54,24.54,0,0,1-.15-4.56c1.77-21-19.29-36.36-37.19-39.18C87.18,57.83,67.18,63,48.11,72,37.93,76.74,29,84.13,19.54,90.42a1.25,1.25,0,0,0-.56,1v1.77a1.32,1.32,0,0,0,.2.69c5.27,8.2,10.57,16.38,15.79,24.61,2.19,3.45,4.24,7,6.53,10.79a1.32,1.32,0,0,0,1.49.57l6.71-2.15a1.3,1.3,0,0,1,1.57.71q11.49,25.95,22.89,51.71c3.83,8.69,7.34,17.55,11.69,26,.93,1.8,5.27,3.39,7.38,2.78,10.23-3,20.31-6.55,30.3-10.27,5.93-2.21,8.89-5.94,5.87-12.87-1.47-3.36-2.05-7.09-2.89-11.34a1.27,1.27,0,0,1,2-1.22c20.31,16.19,35.26,11.63,50.91,1.2a1.27,1.27,0,0,1,1.95.8c.58,2.82,1.16,5.69,1.84,9a1.32,1.32,0,0,0,1.48,1c10.73-1.85,21.21-3.59,31.65-5.49,6.86-1.25,9.75-5.38,8.91-12.42a77.52,77.52,0,0,1-.1-10.33,1.29,1.29,0,0,1,1.84-1.13c6.41,3.08,12.09,5.77,17.72,8.57,11.87,5.9,23.66,12,35.56,17.83,8.13,4,14.16.25,14.2-8.65q0-9.85.09-19.73a6.66,6.66,0,0,1,.28-1.3l21-9.49a1.29,1.29,0,0,1,1.8,1.31c-1.16,10.07-2,19.88-3.75,29.5-1,5.38,0,7.34,5.37,8.64,19.4,4.65,38.71,6.11,57.53-1.66,6.12-2.52,11.49-6.87,17.12-10.53a1.27,1.27,0,0,1,1.76.39c12.84,19.62,53.57,30.21,68.81,16.16a1.26,1.26,0,0,1,2,.4q.4.84.81,1.65c2.44,4.77,4.44,4.43,7.35,0,5.61-8.48,11.68-16.66,18-25.47a1.25,1.25,0,0,1,1.93-.16c18.94,19.58,56.37,57.06,58,56.94,1.23-.09,8.71-29,12.17-42.4A11.17,11.17,0,0,0,561.19,166.73Zm-256.52-129,6.42,9.91a1.29,1.29,0,0,1-.48,1.83l-24.2,12.7a1.28,1.28,0,0,1-1.84-1.45c1.76-6.12,9.91-16.44,18.23-23.29A1.28,1.28,0,0,1,304.67,37.73ZM112.84,139.13c-3.25,3.11-4.27,5.26-3.06,9.43,3.06,10.57,5.49,21.32,8.6,31.88,1.4,4.75.62,7.56-4.41,8.86-3.72,1-7.37,2.17-11.43,3.41A1.28,1.28,0,0,1,101,192L63.09,107.82a1.26,1.26,0,0,0-1.66-.64l-7.55,3.24a1.28,1.28,0,0,1-1.6-.52c-4-6.71-8-13.43-12.37-20.67a1.31,1.31,0,0,1,.38-1.74A109.54,109.54,0,0,1,80.24,71.28c11.67-2.35,23.4-2.45,34.84,1.4,19.77,6.67,28,26,17.42,43.89C127.5,125,120,132.24,112.84,139.13Zm82.69-2.41c-1.48,16.7-18,31.85-34.82,31.91s-28.46-14.31-25-30.69a36.94,36.94,0,0,1,29.9-29C183.47,106,197.12,118.65,195.53,136.72Zm89.71,18.33a63.88,63.88,0,0,0-.09,8.57,1.28,1.28,0,0,1-1.85,1.16l-65-32.41a1.28,1.28,0,0,0-1.84,1.15c0,7.8,0,15,0,22.13,0,12.13,0,12.15-12.23,13.8a36,36,0,0,1-4.74,0,1.29,1.29,0,0,1-1.26-1.4c.57-6.07.36-12.19,2.27-17.54,4.76-13.33,4.68-25.51-3.73-37.44-2.14-3-3-7.27-3.46-11.08-.87-6.53-1.15-13.14-1.64-20a1.29,1.29,0,0,0-1.37-1.19l-6,.45a1.28,1.28,0,0,1-1.23-1.86c1.35-2.52,2.21-4.66,3.67-5.21,7.19-2.69,14.63-4.71,22.79-7.15a1.27,1.27,0,0,1,1.64,1.12c.62,8,1.19,15.4,1.85,23.88a1.27,1.27,0,0,0,2.29.65l18.31-25a1.28,1.28,0,0,1,1.91-.17l18,17.14a1.29,1.29,0,0,1,.05,1.8l-26.2,28.12a1.28,1.28,0,0,0,.46,2.06c7.1,2.84,13.69,5.34,20.11,8.24a18.32,18.32,0,0,1,7,5.33c5.85,7.93,13.5,13.3,22.94,15.33C283.87,146.85,285.93,149.35,285.24,155.05ZM271,132.71c-11.06-7-15.88-21-11.58-34.06,4.7-14.28,16.17-20.3,29.71-22.78,11.74-2.15,22.19.85,30.23,10.45a1.3,1.3,0,0,1,0,1.67c-4.24,4.89-8.27,9.62-12.41,14.26-3.74,4.19-7.56,8.3-11.88,13a1.28,1.28,0,0,0,.85,2.14c7.61.69,12.17-4.09,17.18-8.16a1.29,1.29,0,0,1,1.66.06l11.37,10.37a1.27,1.27,0,0,1,.18,1.69C314.61,137,286.79,142.69,271,132.71Zm117,19.16c1.05,4.51-.29,6.93-3.54,9.48-11.69,9.19-25.14,9.7-39,7.9-10.24-1.34-10.23-1.6-8.72-12.1q3.56-24.72,7.14-49.43c.25-1.76.31-3.55.42-5.38a1.28,1.28,0,0,0-.75-1.24L337,98.15a1.29,1.29,0,0,1-.75-1.33c1.24-9.92,2.47-19.7,3.78-30.17a1.29,1.29,0,0,1,1.27-1.13c18.61-.06,35.46,2.68,50.84,11.64a30.67,30.67,0,0,1,14.74,19c1.74,6.51,2.09,11.92-4.78,17.08C389.51,122.73,384.32,136.12,388,151.87Zm61.09,9.25,4,13.08a1.26,1.26,0,0,1-.69,1.53c-21.66,9.5-54.34-7.62-55.8-29-1.49-21.81,18.71-37.15,41.07-31,11.11,3,20.25,8.88,25.18,19.83,3.1,6.9,2.44,8.43-4.77,10.49-8.41,2.4-23.19,6.35-31.64,8.65.21,3-.21-.17,0,2.83,4.67.58,16.2,2.06,21.6,2.74A1.27,1.27,0,0,1,449.08,161.12Zm106.64,19.1c-.68,5.13-2.21,10.16-3.78,16.29a1.28,1.28,0,0,1-2.15.56c-17.31-17.81-33.94-34.92-51.1-52.56a1.27,1.27,0,0,0-1.85,0l-21.67,23.59a1.29,1.29,0,0,1-1.94-.06c-2.94-3.69-5.79-7.25-8.94-11.18a1.28,1.28,0,0,1,.59-2l10.24-3.4a1.3,1.3,0,0,0,.87-1.36c-.33-3.14-.29-6.4-1.41-9.2-2.32-5.79-1.38-9.79,4.43-12.51a9.89,9.89,0,0,0,2.58-2.31,1.28,1.28,0,0,0,.09-1.64L455.51,89.58a1.28,1.28,0,0,0-1.32-.48l-4.84,1.21a1.26,1.26,0,0,1-1.4-.58c-2.83-5-.68-7.63,4.74-9.39,6.33-2.06,12.49-4.64,19.1-7.17a1.27,1.27,0,0,1,1.55.53c7,11.56,13.83,22.88,21.24,35.16a1.28,1.28,0,0,0,2,.28l26.79-24.79a1.3,1.3,0,0,1,1.95.25l15.36,23.91a1.27,1.27,0,0,1-.38,1.76l-31.21,20a1.28,1.28,0,0,0-.17,2c9.45,8.56,18.53,16.8,27.62,25,5.58,5,11.42,9.83,16.64,15.22A10.52,10.52,0,0,1,555.72,180.22Z" transform="translate(-18.98 -23.09)"/><path class="cls-2" d="M62.58,106.68l-9.73,4.18L39.28,88.17a109.41,109.41,0,0,1,41-16.89c11.67-2.35,23.4-2.45,34.84,1.4,19.77,6.67,28,26,17.42,43.89-5,8.46-12.46,15.67-19.66,22.56-3.25,3.11-4.27,5.26-3.06,9.43,3.06,10.57,5.49,21.32,8.6,31.88,1.4,4.75.62,7.56-4.41,8.86-4,1-8,2.38-12.51,3.74Zm42.52,25.93c3.08-2.53,5.12-4.06,7-5.77a55,55,0,0,0,5.36-5.54c4.69-5.74,4.88-15.07.55-20.13s-14.14-6.76-20.08-3.32c-1.19.68-2.5,3-2.19,4.13C98.51,111.81,101.66,121.54,105.1,132.61Z" transform="translate(-18.98 -23.09)"/><path class="cls-2" d="M340.2,65.53c19.05-.18,36.27,2.49,52,11.63a30.67,30.67,0,0,1,14.74,19c1.74,6.51,2.09,11.92-4.78,17.08-12.61,9.48-17.8,22.87-14.13,38.62,1.05,4.51-.29,6.93-3.54,9.48-11.69,9.19-25.14,9.7-39,7.9-10.24-1.34-10.23-1.6-8.72-12.1q3.56-24.72,7.14-49.43c.29-2,.32-4.13.48-6.26l-8.24-3.7C337.48,87.16,338.79,76.76,340.2,65.53Zm11.94,89.9c6.11-2,10.8-3.19,15.3-4.94,9.56-3.72,14.81-13.11,12.37-21.63-2.4-8.35-11.69-13.41-22.64-11.8C355.6,129.06,354,141.28,352.14,155.43Z" transform="translate(-18.98 -23.09)"/><path class="cls-2" d="M463.15,155.45l13-4.31c-.47-3.45-.28-7.12-1.53-10.23-2.32-5.79-1.38-9.79,4.43-12.51,1.2-.57,2.05-1.86,3.33-3.07L455,88.9l-6.56,1.63C444.9,85,447,82.2,452.69,80.34c6.65-2.17,13.11-4.9,20.1-7.55l22.6,37.41,29.06-26.88,16.88,26.26L507.64,131.2c9.9,9,19.37,17.56,28.86,26.14,5.58,5,11.42,9.83,16.64,15.22a10.52,10.52,0,0,1,2.58,7.66c-.76,5.74-2.58,11.33-4.34,18.49l-53.63-55.17-23.59,25.68Z" transform="translate(-18.98 -23.09)"/><path class="cls-3" d="M285.17,165.71l-68.71-34.26c0,8.62,0,16.41,0,24.2,0,12.13,0,12.15-12.23,13.8a59.15,59.15,0,0,1-6.14,0c.75-6.53.35-13.17,2.41-18.93,4.76-13.33,4.68-25.51-3.73-37.44-2.14-3-3-7.27-3.46-11.08-.93-6.93-1.18-14-1.74-21.3l-9.68.72c2.12-3.33,3-6.56,4.85-7.25,7.63-2.86,15.55-5,24.31-7.61.74,9.62,1.42,18.36,2.23,28.88l21.2-28.91,20,19L226.15,116c7.76,3.13,14.91,5.79,21.84,8.93a18.32,18.32,0,0,1,7,5.33c5.85,7.93,13.5,13.3,22.94,15.33,5.89,1.27,7.95,3.77,7.26,9.47C284.87,158,285.17,161.06,285.17,165.71Z" transform="translate(-18.98 -23.09)"/><path class="cls-2" d="M320,87.16c-4.5,5.19-8.75,10.19-13.12,15.09-4.19,4.7-8.5,9.3-13.49,14.74,9.6,2.18,14.62-3.84,20.49-8.45l13,11.88c-11.23,16.36-39.82,22.46-55.94,12.29-11.06-7-15.88-21-11.58-34.06,4.7-14.28,16.17-20.3,29.71-22.78C301.19,73.66,311.9,76.9,320,87.16Zm-17.29,6.31c-5.28-5.31-10.89-6.72-17.19-4.76s-10.52,6.3-11.43,13c-.87,6.49,1.21,11.87,7.15,15.93Z" transform="translate(-18.98 -23.09)"/><path class="cls-2" d="M426.76,157.55l22.08,2.8,4.54,14.91c-21.63,10.5-55.33-6.82-56.81-28.55s18.71-37.15,41.07-31c11.11,3,20.25,8.88,25.18,19.83,3.1,6.9,2.44,8.43-4.77,10.49-10.38,3-20.82,5.73-31.24,8.58C426.79,155.58,426.78,156.57,426.76,157.55Zm-11.09-8.65L446,139.72c-3.13-10.74-11.32-15.66-20.29-12.82C416.24,129.9,412.08,138.33,415.67,148.9Z" transform="translate(-18.98 -23.09)"/><path class="cls-2" d="M160.71,168.63c-16.76.06-28.46-14.31-25-30.69a36.94,36.94,0,0,1,29.9-29c17.85-3,31.5,9.67,29.91,27.74C194.05,153.42,177.52,168.57,160.71,168.63Zm6.54-53.38c-6.46.3-12.61,4.21-13.78,10.06-1.33,6.58.86,12,6.63,15.73s14.14,3.1,18.92-1.57c4.41-4.31,6.26-9.32,4.4-14.1-4.54,2.22-8.28,5.1-12.33,5.62-2.17.28-6.57-3.24-6.91-5.5C163.71,122.31,166.08,118.71,167.25,115.25Z" transform="translate(-18.98 -23.09)"/><path class="cls-2" d="M303.9,36.54l8,12.28L284.25,63.3C283.7,57.79,293.88,44.41,303.9,36.54Z" transform="translate(-18.98 -23.09)"/><path class="cls-1" d="M167.25,115.25c-1.17,3.46-3.54,7.06-3.07,10.24.34,2.26,4.74,5.78,6.91,5.5,4-.52,7.79-3.4,12.33-5.62,1.86,4.78,0,9.79-4.4,14.1-4.78,4.67-13.1,5.31-18.92,1.57s-8-9.15-6.63-15.73C154.64,119.46,160.79,115.55,167.25,115.25Z" transform="translate(-18.98 -23.09)"/><path class="cls-1" d="M285.54,88.71c-6.33,2-10.52,6.3-11.43,13-.87,6.49,1.21,11.87,7.15,15.93l21.47-24.2C297.45,88.16,291.84,86.75,285.54,88.71ZM281,110.14c-1.05-12.35.64-14.29,10.25-12.73Z" transform="translate(-18.98 -23.09)"/><path class="cls-1" d="M425.7,126.9c-9.46,3-13.62,11.43-10,22L446,139.72C442.86,129,434.67,124.06,425.7,126.9Zm-5.36,13.94c4-9.16,7.17-9.91,14.09-2.81Z" transform="translate(-18.98 -23.09)"/><path class="cls-1" d="M118,101.17c-4.25-5-14.14-6.76-20.08-3.32-1.19.68-2.5,3-2.19,4.13,2.79,9.83,5.94,19.56,9.38,30.63,3.08-2.53,5.12-4.06,7-5.77a55,55,0,0,0,5.36-5.54C122.13,115.56,122.32,106.23,118,101.17Zm-7.08,16.71c-.92,1.46-2.78,1.73-3.67-.27-1.41-3.11-5.1-13-2.76-13.88,3.6-1.41,4.84-.68,6.36,1.42C113.84,109.29,115,114,110.91,117.88Z" transform="translate(-18.98 -23.09)"/><path class="cls-1" d="M379.81,128.86c-2.4-8.35-11.69-13.41-22.64-11.8-1.57,12-3.17,24.22-5,38.37,6.11-2,10.8-3.19,15.3-4.94C377,146.77,382.25,137.38,379.81,128.86ZM362.9,142.13c-1.48.88-2.83,1-2.71-1.22.16-3.41,1.37-13.81,3.88-13.6s4.62,1.6,5,4.15C369.85,136.52,368.34,140.53,362.9,142.13Z" transform="translate(-18.98 -23.09)"/></svg>